<svg xmlns="http://www.w3.org/2000/svg" id="parentSvg" width="449" height="224.5"><svg xmlns="http://www.w3.org/2000/svg" xmlns:xlink="http://www.w3.org/1999/xlink" enable-background="new 0 0 24 24" id="Layer_1" version="1.1" viewBox="0 0 24 24" xml:space="preserve" x="235.725" y="11.224999999999994" width="89.80000000000001" height="89.80000000000001"><g><path d="M7,12c0-2.7614136,2.2385864-5,5-5c0.7705078,0,1.4915771,0.1887207,2.1434326,0.5h8.9761353   C21.338562,3.1040039,17.03479,0,12,0C8.1478271,0,4.7286987,1.8223267,2.53302,4.6439209l4.5093994,7.7771606   C7.0304565,12.2799683,7,12.1442261,7,12z" fill="#F44336"/><path d="M12,17c-2.6171875,0-4.7403564-2.0178833-4.9575806-4.5789185L2.53302,4.6439209   C0.9511719,6.6766968,0,9.2247314,0,12c0,6.0725098,4.5148926,11.0784302,10.3684082,11.8762817l4.4510498-7.75   C14.0164185,16.6760864,13.0466919,17,12,17z" fill="#00B060"/><path d="M14.1434326,7.5C15.8276367,8.3043823,17,10.0090942,17,12   c0,1.7147217-0.8649902,3.2255249-2.180542,4.1262817l-4.4510498,7.75C10.9033203,23.9492188,11.4450684,24,12,24   c6.6274414,0,12-5.3726196,12-12c0-1.5926514-0.3170776-3.109436-0.8804321-4.5H14.1434326z" fill="#FFC107"/><circle cx="12" cy="12" fill="#2196F3" id="XMLID_1302_" r="4"/><linearGradient gradientUnits="userSpaceOnUse" id="SVGID_1_" x1="16.3874664" x2="20.8755341" y1="5.2559662" y2="9.7440338"><stop offset="0" style="stop-color:#000000;stop-opacity:0.1"/><stop offset="1" style="stop-color:#000000;stop-opacity:0"/></linearGradient><path d="M16.4558716,9.7610474L23.1195679,7.5h-8.9761353   C15.1433716,7.9775391,15.9550171,8.7772827,16.4558716,9.7610474z" fill="url(#SVGID_1_)"/><linearGradient gradientUnits="userSpaceOnUse" id="SVGID_2_" x1="1.8841199" x2="8.0149345" y1="5.2791538" y2="11.4099684"><stop offset="0" style="stop-color:#000000;stop-opacity:0.1"/><stop offset="1" style="stop-color:#000000;stop-opacity:0"/></linearGradient><path d="M7.8330746,9.2605782L2.5431018,4.6201715l4.4880676,7.7735615   C6.9447608,11.288991,7.2315364,10.1862135,7.8330746,9.2605782z" fill="url(#SVGID_2_)"/><linearGradient gradientUnits="userSpaceOnUse" id="SVGID_3_" x1="10.6388721" x2="13.4027376" y1="18.0505562" y2="20.8144207"><stop offset="0" style="stop-color:#000000;stop-opacity:0.1"/><stop offset="1" style="stop-color:#000000;stop-opacity:0"/></linearGradient><path d="M11.7110538,16.9783745l-1.373723,6.901453l4.4880676-7.7735596   C13.9118671,16.7334709,12.813446,17.0365047,11.7110538,16.9783745z" fill="url(#SVGID_3_)"/><linearGradient gradientUnits="userSpaceOnUse" id="XMLID_45_" x1="1.1217111" x2="22.8782883" y1="6.9273705" y2="17.0726299"><stop offset="0" style="stop-color:#FFFFFF;stop-opacity:0.2"/><stop offset="1" style="stop-color:#FFFFFF;stop-opacity:0"/></linearGradient><circle cx="12" cy="12" fill="url(#XMLID_45_)" id="XMLID_1304_" r="12"/></g><g/><g/><g/><g/><g/><g/><g/><g/><g/><g/><g/><g/><g/><g/><g/></svg><svg xmlns="http://www.w3.org/2000/svg" xmlns:xlink="http://www.w3.org/1999/xlink" enable-background="new 0 0 128 128" id="Social_Icons" version="1.1" viewBox="0 0 128 128" xml:space="preserve" x="235.725" y="123.475" width="89.80000000000001" height="89.80000000000001"><g id="_x31__stroke"><g id="Android_1_"><rect fill="none" height="128" width="128"/><path clip-rule="evenodd" d="M112.368,40.466c-4.222,0-7.64,3.326-7.64,7.428    v31.797c0,4.102,3.418,7.428,7.64,7.428c4.214,0,7.632-3.326,7.632-7.428V47.894C120,43.793,116.582,40.466,112.368,40.466z     M15.64,40.466c-4.222,0-7.64,3.326-7.64,7.428v31.797c0,4.102,3.418,7.428,7.64,7.428c4.214,0,7.632-3.326,7.632-7.428V47.894    C23.272,43.793,19.854,40.466,15.64,40.466z M28.917,40.466h-0.549v54.503c0,4.327,3.611,7.85,8.065,7.85h5.815    c-0.201,0.655-0.309,1.34-0.309,2.062v15.692c0,4.102,3.426,7.428,7.64,7.428c4.214,0,7.64-3.326,7.64-7.428V104.88    c0-0.722-0.116-1.407-0.309-2.062h14.182c-0.193,0.655-0.302,1.34-0.302,2.062v15.692c0,4.102,3.418,7.428,7.632,7.428    c4.222,0,7.648-3.326,7.648-7.428V104.88c0-0.722-0.116-1.407-0.317-2.062h5.823c4.454,0,8.057-3.522,8.057-7.85V40.466H28.917z     M81.53,10.716l1.423-2.092l1.423-2.062l3.17-4.636c0.394-0.572,0.232-1.34-0.356-1.716c-0.58-0.384-1.376-0.226-1.755,0.346    l-4.841,7.052L79.141,9.73C74.54,7.992,69.413,7.021,64,7.021c-5.405,0-10.54,0.971-15.141,2.709l-1.446-2.122l-1.431-2.085    l-3.402-4.967c-0.394-0.572-1.183-0.722-1.771-0.346c-0.58,0.376-0.742,1.144-0.356,1.716l3.17,4.636l1.423,2.062l1.431,2.092    c-10.803,4.899-18.11,14.179-18.11,24.798h71.264C99.632,24.895,92.325,15.616,81.53,10.716z M48.728,25.602    c-2.111,0-3.82-1.663-3.82-3.718c0-2.055,1.709-3.71,3.82-3.71s3.82,1.656,3.82,3.71C52.548,23.939,50.839,25.602,48.728,25.602z     M79.272,25.602c-2.111,0-3.82-1.663-3.82-3.718c0-2.055,1.709-3.71,3.82-3.71c2.111,0,3.82,1.656,3.82,3.71    C83.092,23.939,81.383,25.602,79.272,25.602z" fill="#95CF00" fill-rule="evenodd" id="Android"/></g></g></svg><svg xmlns="http://www.w3.org/2000/svg" xmlns:xlink="http://www.w3.org/1999/xlink" enable-background="new 0 0 32 32" height="89.80000000000001" id="Layer_1" version="1.0" viewBox="0 0 32 32" width="89.80000000000001" xml:space="preserve" x="11.224999999999994" y="11.224999999999994"><g><path d="M11.466,18.942v0.064c0,1.051,0.24,2.06,0.725,3.022c0.569,1.008,1.349,1.806,2.336,2.397   c0.987,0.59,2.084,0.886,3.29,0.886s2.305-0.296,3.292-0.886c0.986-0.592,1.765-1.39,2.335-2.397h7.833   c-1.011,2.847-2.765,5.179-5.265,6.994c-2.502,1.817-5.311,2.726-8.425,2.726c-2.325,0-4.519-0.503-6.581-1.511   c-4.607,2.234-7.92,2.343-9.938,0.329c-0.703-0.656-1.053-1.751-1.053-3.284c0-1.532,0.296-3.24,0.889-5.123   c0.592-1.882,1.579-3.952,2.962-6.207c1.381-2.255,3.016-4.302,4.902-6.141c1.097-1.139,1.799-1.84,2.105-2.102   c-2.721,1.312-5.178,3.35-7.37,6.107c0.789-3.196,2.49-5.823,5.1-7.882c2.61-2.058,5.605-3.087,8.984-3.087   c0.351,0,0.701,0.022,1.052,0.065c2.458-1.095,4.695-1.707,6.714-1.839c2.018-0.132,3.443,0.197,4.277,0.985   c1.667,1.708,1.821,4.379,0.461,8.013C31.363,12.308,32,14.717,32,17.3c0,0.613-0.022,1.16-0.065,1.643h-7.767H11.466z    M10.085,29.714c-2.939-1.795-5.003-4.312-6.188-7.554c-1.974,3.854-2.237,6.503-0.79,7.948   C4.38,31.378,6.705,31.246,10.085,29.714z M23.642,15.133c-0.088-1.577-0.724-2.923-1.908-4.04   c-1.185-1.116-2.578-1.675-4.179-1.675c-1.603,0-2.995,0.559-4.179,1.675c-1.186,1.117-1.822,2.463-1.91,4.04H23.642z    M22.918,3.901c2.807,1.138,5.045,2.977,6.712,5.517c1.01-2.715,0.965-4.619-0.131-5.715C28.314,2.478,26.12,2.544,22.918,3.901z" fill="#188FD1"/></g><g/><g/><g/><g/><g/><g/></svg><svg xmlns="http://www.w3.org/2000/svg" xmlns:xlink="http://www.w3.org/1999/xlink" enable-background="new 0 0 24 24" id="Layer_1" version="1.1" viewBox="0 0 24 24" xml:space="preserve" x="123.475" y="11.224999999999994" width="89.80000000000001" height="89.80000000000001"><g><radialGradient cx="6.4375" cy="-0.5625" gradientUnits="userSpaceOnUse" id="SVGID_1_" r="21.0836315"><stop offset="0" style="stop-color:#15BEF0"/><stop offset="0.2680316" style="stop-color:#0D91CE"/><stop offset="0.5303907" style="stop-color:#066DB1"/><stop offset="0.7424976" style="stop-color:#0257A0"/><stop offset="0.877771" style="stop-color:#004E9A"/></radialGradient><circle cx="12" cy="12" fill="url(#SVGID_1_)" r="12"/><linearGradient gradientUnits="userSpaceOnUse" id="SVGID_2_" x1="12" x2="12" y1="0" y2="23.729126"><stop offset="0" style="stop-color:#000000;stop-opacity:0"/><stop offset="1" style="stop-color:#000000;stop-opacity:0.4"/></linearGradient><circle cx="12" cy="11.864563" fill="url(#SVGID_2_)" r="11.864563"/><path d="M20.6663208,6.8831787L20.184021,6.798645l0.3720093-0.5917969   c-0.0014038-0.0030518-0.7597046,0.4789429-0.7610474,0.4759521c-0.1320801-0.2929688-0.4786987-0.1651611-0.7076416-0.3141479   c0.0693359-0.1085815,0.0969849-0.2220459,0.1410522-0.3071899c0.0670166-0.1293945,0.3018188-0.3397827,0.262085-0.4580078   l0.0499878-0.2963867l0.0825806-0.1798706l-0.5058594-0.0357666l-0.2794189-0.0583496l-0.3372192-0.1335449l-0.0515747,0.6011963   L18.3192139,5.630127c-0.0026855-0.0020142-0.0060425-0.005188-0.008667-0.0071411   c-0.2932739-0.2177124-0.4207764-0.7736816-0.7805786-0.6450195c-0.3598633,0.1286621-0.4984741-0.1991577-0.956665,0.0090332   c-0.4581299,0.2081299-0.3555298,0.0709839-0.5360107,0.2874146c-0.180542,0.2163696-0.1300659,0.5637207-0.1585693,0.7828979   c-0.0254517,0.1955566-0.1682739,0.4767456-0.1381226,0.6923218c-0.0286255-0.0071411-0.0557861-0.0113525-0.0861816-0.0228271   c-0.2231445-0.0847168-0.1148071-0.3034668-0.3616943-0.3924561c-0.1516724-0.0547485-0.1478882,0.1881714-0.0924072,0.4487915   c-0.0073853,0.0066528-0.1443481,0.128418-0.3740234,0.1622925c-0.236145,0.03479-0.2480469-0.2090454-0.507019-0.1665649   c-0.2589722,0.0424194,0.2240601,0.572876,0.4758911,0.755249c0.25177,0.182312,0.3175049,0.6431274,0.6639404,0.5395508   c0.1487427-0.0444946,0.25177-0.0194702,0.355957,0.0100098c0.1929932,0.1143799,0.2351074,0.3131714,0.6193237,0.3700562   c0.1945801,0.0288086,0.2814941,0.0528564,0.3363037,0.0675049l0.0158691,0.0221558l0.2279663,0.477417l0.2554932-0.6828613   c0.0300903-0.0308228,0.0504761-0.0585938,0.0772095-0.0910034c0.1043701,0.4296265,0.2394409,0.9818115,0.236084,0.9821777   c-0.5418701,0.0541992-0.5234375,0.6799316-0.8861694,0.9674072c-0.137085-0.1699219-0.3043823-0.2755127-0.4174194-0.3922729   c-0.1716919-0.1774292-0.3830566-0.6679688-0.5944214-0.6679688L15.236145,8.8962402L14.9917603,8.666626L14.661499,9.4598389   l-0.2443848,0.4174805l-0.3963013,0.4696655l0.9379272,0.4070435l0.1378784,0.2781372   c-0.0046997,0.0032349-0.0115967,0.006958-0.0161133,0.0101318c-0.5078735,0.3537598-1.4697876,0.2587891-1.4570923,0.9061279   c0.0126953,0.6473999-0.588623,0.6933594-0.5012817,1.541626c0.0873413,0.8482056-0.0776367,0.609436,0.1726685,1.0160522   s0.8353882,0.5128784,1.1721191,0.6768188c0.3004761,0.1463013,0.6751709,0.5274048,1.0377197,0.5951538   c-0.0269775,0.0421753-0.0482788,0.0834961-0.0831909,0.1261597c-0.2563477,0.3128052-0.5493164,0.020813-0.8254395,0.3693848   c-0.1697388,0.2141113,0.2225342,0.3390503,0.6710815,0.3904419c0.0067749,0.0155029,0.12854,0.3010864,0.059082,0.6883545   c-0.0714722,0.3980713-0.4695435,0.2857666-0.5409546,0.7246704c-0.0714722,0.4389038,1.0410767-0.0510254,1.4697876-0.3572388   c0.4286499-0.3062134,1.2043457-0.1633301,1.2247925-0.7756958c0.008728-0.2628784,0.1044312-0.414856,0.2079468-0.5664062   c0.2878418-0.2483521,0.6298828-0.2088013,0.9284058-0.7953491c0.1511841-0.2970581,0.2366943-0.4237061,0.2897339-0.5037842   l0.0441895-0.0136108l0.8898315-0.1087036l-0.9591675-0.7786865c-0.1057739-0.2062378-0.2479858-0.3895874-0.3317261-0.5493164   c-0.0825806-0.1575317-0.1386108-0.4038696-0.2191162-0.6220093c0.1240845-0.0255127,0.2431641-0.0995483,0.3555298-0.2913818   c0.3165894-0.5405273,0.5985718-0.3952026,0.9829102-1.124939c0.3842773-0.7297363,0.3366089-0.4815063,0.4310303-0.8948975   s-0.1048584-0.6798706-0.168396-0.9185181c-0.0635376-0.2385864-0.0091553-0.7699585-0.1937866-0.8729248L19.461853,8.4752197   l0.0288086-0.1262817c0.2120361-0.0407715,0.326416-0.1755371,0.4389038-0.2498779   c0.121582-0.0803833,0.4290771-0.1497192,0.4520264-0.2723389l0.1879883-0.2344971l0.2109375-0.0211182l0.0070801-0.3265991   l0.1082153-0.2957153L20.6663208,6.8831787z M17.4941406,8.0738525c0.0063477-0.0070801,0.0146484-0.0181274,0.0209351-0.0246582   c0.0726318-0.0758057,0.1999512-0.1533813,0.3068848-0.2393799c0.0375366,0.0646362,0.1013184,0.1173096,0.2297363,0.144165   c0.1182861,0.0247192,0.1921997,0.062439,0.2584839,0.1029663L17.979187,8.666626L17.4941406,8.0738525z" opacity="0.1"/><radialGradient cx="17.625" cy="5.4415441" gradientTransform="matrix(-0.7854384 0.6189399 -0.6326912 -0.8028888 34.9111671 -1.0983169)" gradientUnits="userSpaceOnUse" id="XMLID_46_" r="16.6495399"><stop offset="0" style="stop-color:#FFF203"/><stop offset="0.2984279" style="stop-color:#FBC40D"/><stop offset="0.7765047" style="stop-color:#F47E1C"/><stop offset="1" style="stop-color:#F26322"/></radialGradient><path d="M24,11.9791317C24,18.6051922,18.6260624,24,12,24S0,18.6051922,0,11.9791317   c0-2.1287365,0.5634553-4.1321974,1.5338825-5.8643432c-0.6156166-0.8765497-0.8347699-2.6086957,0.553074-4.0487008   c0,0.5530105,0.3339207,1.5026114,0.7095575,2.2121687c0.3025858,0.5634556,0.6264446,0.9718132,0.85566,0.9182663   c0.5224862-0.1220579,2.347826-0.1252122,2.6086955,0C6.6886678,4.6434484,7.7321458,3.109566,9.391304,3.109566   c-0.9287109,0.9287112-3.5895677,4.173913,1.043479,4.173913c0.521739,0,1.043478,0,1.043478,0L8.347826,9.3704357   c0,0,0.3548107,0.6886673,0,1.043478c-0.3965268-0.3965263-2.0869565,0.4277983-2.0869565,1.565218   c0,1.1373549,1.2104068,2.608695,3.6521735,2.608695s1.826087-1.043478,3.130435-1.043478s1.565218,1.043478,1.565218,1.043478   c-1.7947521,0-3.0991001,2.086957-5.217392,2.086957c1.043479,0.7721634,1.7321463,1.043478,3.130435,1.043478   c3.4539108,0,6.260869-2.8069592,6.260869-6.26087c0-1.3982887-0.4591331-2.6817465-1.2312965-3.7252245   c1.3982258,1.043478,2.3373814,2.6504116,2.5043106,4.4764986c0.1878815-0.7304478,0.2922039-1.5130558,0.2922039-2.3164911   c0-3.1304345-1.2521858-7.3252378-3.5582333-8.9113455C21.0364933,2.8278065,24,7.0538807,24,11.9791317z" fill="url(#XMLID_46_)" id="XMLID_1317_"/><path d="M6.2608643,11.979126c0-1.1374512,1.6904297-1.961731,2.0869751-1.5652466   C8.6384277,10.123291,8.454834,9.614563,8.3781738,9.4378662C8.3580322,9.5455933,8.3158569,9.6487427,8.2317505,9.7328491   c-0.4091187-0.4091187-2.1532593,0.4413452-2.1532593,1.6149292c0,0.2739868,0.0748291,0.5665894,0.2112427,0.8544312   C6.2799683,12.1276855,6.2608643,12.0514526,6.2608643,11.979126z" opacity="0.1"/><linearGradient gradientUnits="userSpaceOnUse" id="SVGID_3_" x1="14.8600483" x2="22.0489292" y1="5.1187983" y2="8.4710283"><stop offset="0" style="stop-color:#FFFFFF;stop-opacity:0.5"/><stop offset="1" style="stop-color:#FFFFFF;stop-opacity:0.2"/></linearGradient><path d="M20.3478394,9.8921509c0,0.4380493-0.0929375,1.6835032-0.2890167,2.3156919   c0.020813,0.1345215,0.0464478,0.2675171,0.05896,0.404541c0.1938477-0.7536621,0.4953156-2.5888853,0.4953156-3.4178648   c0-2.2662354-0.6383667-5.0698242-1.8397827-7.1082764c-0.6227417-0.4262085-1.2836914-0.8009644-1.9837036-1.1054077   C19.0956421,2.5668945,20.3478394,6.7617188,20.3478394,9.8921509z" fill="url(#SVGID_3_)"/><linearGradient gradientUnits="userSpaceOnUse" id="SVGID_4_" x1="16.5845795" x2="19.4893341" y1="9.8053808" y2="11.1598902"><stop offset="0" style="stop-color:#FFFFFF;stop-opacity:0.5"/><stop offset="1" style="stop-color:#FFFFFF;stop-opacity:0.2"/></linearGradient><path d="M17.5513306,7.7321777c0.7721558,1.043457,1.2312622,2.3269043,1.2312622,3.7252197   c0,0.6171265-0.0930786,1.2122192-0.2600098,1.7756958c0.3043213-0.7491455,0.4755859-1.5661621,0.4755859-2.423645   c0-0.6913452-0.1146851-1.3530273-0.3156738-1.975769C18.3514404,8.4227905,17.975708,8.0488892,17.5513306,7.7321777z" fill="url(#SVGID_4_)"/><path d="M14.6087036,14.5878296c0,0-0.0643921-0.2462158-0.2766113-0.4990845   c-1.6707764,0.2503052-3.5142574,2.1689625-5.5539913,2.1689625c0.2189331,0.1620483,0.4210815,0.2974854,0.6189575,0.4187622   C11.2205887,16.7617645,12.9724731,14.5878296,14.6087036,14.5878296z" opacity="0.1"/><path d="M2.2022705,2.7539673C2.1359253,2.4976807,2.0869751,2.255127,2.0869751,2.0661011   c-0.0379639,0.0394287-0.062439,0.0809326-0.0980225,0.1207886C2.050415,2.3743896,2.1237793,2.5654907,2.2022705,2.7539673z" opacity="0.1"/><path d="M1.1771851,5.3471069c0.0089111-0.0161133,0.0150757-0.0339966,0.0241089-0.0500488   c-0.0216064-0.0308228-0.0383301-0.0702515-0.05896-0.1030273C1.1542969,5.2451172,1.1628418,5.2978516,1.1771851,5.3471069z" opacity="0.1"/><path d="M12,23.729126c-3.8349609,0-7.3013635-1.7529469-9.5726652-4.4917164   C4.6200843,22.1097851,8.1083984,24,12,24s7.3543091-1.8540955,9.5470581-4.7264709   C19.2757568,22.0122986,15.8349609,23.729126,12,23.729126z" opacity="0.1"/><path d="M10.300293,7.2771606L8.2317505,8.656189c0,0,0.1766968,0.3511353,0.1568604,0.6870728l3.0896606-2.0598145   c0,0-0.5217285,0-1.0435181,0C10.3851929,7.2834473,10.3482056,7.2778931,10.300293,7.2771606z" opacity="0.1"/><path d="M7.8188362,6.183661c-0.1575675-1.218955,1.0868034-2.5884461,1.5724602-3.0741029   c-0.3739014,0-0.7120361,0.0855103-1.0233765,0.2125244C7.8348999,4.0883789,7.4230843,5.5279603,7.8188362,6.183661z" opacity="0.1"/><linearGradient gradientUnits="userSpaceOnUse" id="SVGID_5_" x1="-0.1402598" x2="22.8747368" y1="6.3300509" y2="17.0621204"><stop offset="0" style="stop-color:#FFFFFF;stop-opacity:0.2"/><stop offset="1" style="stop-color:#FFFFFF;stop-opacity:0"/></linearGradient><path d="M16.7896118,0.980835c0.0394287,0.0270996,0.0760498,0.060791,0.1148071,0.0894165   C15.4081421,0.3892212,13.7511597,0,12,0C8.3057861,0,5.0067749,1.6890869,2.8307495,4.3363037   C2.819397,4.3157349,2.8078003,4.2993164,2.7965088,4.2782593C2.4208984,3.5686646,2.0869751,2.6190796,2.0869751,2.0661011   c-1.3878784,1.4400024-1.1687012,3.1721191-0.5531006,4.048645C0.5634766,7.8469238,0,9.8504028,0,11.979126   C0,18.6051636,5.3739624,24,12,24s12-5.3948364,12-12.020874C24,7.053894,21.036499,2.8278198,16.7896118,0.980835z" fill="url(#SVGID_5_)"/></g><g/><g/><g/><g/><g/><g/><g/><g/><g/><g/><g/><g/><g/><g/><g/></svg><svg xmlns="http://www.w3.org/2000/svg" data-name="Layer 1" id="Layer_1" viewBox="0 0 508.33 508.36" x="123.475" y="123.475" width="89.80000000000001" height="89.80000000000001"><defs><style>.cls-1{fill:#323232;fill-rule:evenodd;}.cls-2{fill:#fff;}</style></defs><title/><path class="cls-1" d="M485,29.72c11.45,15.13,16.61,40.21,19.15,70.7,3.36,45.5,4.71,100.1,6,156.52-1.67,57.47-2.35,115.43-6,156.52-2.88,31.54-9,52.66-19.22,65.47-13,12.79-37.94,23.59-73.5,26.15-43.25,3.69-96.61,3.65-155.48,5.1-65.44-1.12-109.82-.64-156.38-5.08-36.32-2.52-60.08-13.19-74.7-26.07-10.83-14.54-14-30-17-66.24-3.75-41.85-4.58-98.56-6-155.54C4,200.57,4.13,143.44,7.9,100.74,10.43,67.05,14.42,44.4,24.65,30,39,17.77,63.48,11.69,100,8.69c50-5.85,102.06-7,155.88-6.87,55.39.09,108.56,1.67,156,6.34,32,2.56,58.48,8.07,73.07,21.56Z" transform="translate(-1.83 -1.82)"/><path class="cls-2" d="M331.37,258.19c-.38-37.95,30.94-56.15,32.35-57.07-17.6-25.74-45-29.27-54.79-29.67-23.32-2.37-45.53,13.74-57.36,13.74s-30.09-13.39-49.43-13c-25.44.38-48.89,14.8-62,37.57-26.42,45.83-6.76,113.76,19,151,12.59,18.18,27.6,38.64,47.29,37.89,19-.75,26.14-12.28,49.08-12.28s29.39,12.28,49.46,11.89c20.41-.37,33.35-18.53,45.83-36.78a165.67,165.67,0,0,0,20.75-42.61C371.12,318.57,331.78,303.5,331.37,258.19Z" transform="translate(-1.83 -1.82)"/><path class="cls-2" d="M293.65,146.83c10.44-12.68,17.52-30.29,15.59-47.83-15.07.61-33.31,10-44.13,22.68-9.69,11.24-18.17,29.14-15.9,46.36C266,169.34,283.17,159.48,293.65,146.83Z" transform="translate(-1.83 -1.82)"/></svg><svg xmlns="http://www.w3.org/2000/svg" xmlns:xlink="http://www.w3.org/1999/xlink" enable-background="new 0 0 128 128" id="Social_Icons" version="1.1" viewBox="0 0 128 128" xml:space="preserve" x="347.975" y="11.224999999999994" width="89.80000000000001" height="89.80000000000001"><g id="_x37__stroke"><g id="Safari"><rect clip-rule="evenodd" fill="none" fill-rule="evenodd" height="128" width="128"/><g id="Safari_1_"><circle clip-rule="evenodd" cx="64" cy="64" fill="#00AAFF" fill-rule="evenodd" r="64"/><polygon clip-rule="evenodd" fill="#FFFFFF" fill-rule="evenodd" points="23.742,104.258 69.845,69.845 58.155,58.155    "/><polygon clip-rule="evenodd" fill="#EE0000" fill-rule="evenodd" points="104.258,23.742 58.155,58.155 64,64 64,64      69.845,69.845    "/></g></g></g></svg></svg>